<?xml version="1.0" encoding="utf-8"?>
<!-- Generator: Adobe Illustrator 28.0.0, SVG Export Plug-In . SVG Version: 6.00 Build 0)  -->
<svg version="1.1" id="Слой_1" xmlns="http://www.w3.org/2000/svg" xmlns:xlink="http://www.w3.org/1999/xlink" x="0px" y="0px"
	 viewBox="0 0 999.9841309 1000" style="enable-background:new 0 0 999.9841309 1000;" xml:space="preserve">
<style type="text/css">
	.st0{fill:#FBBC04;}
	.st1{fill:#4285F4;}
	.st2{fill:#34A853;}
	.st3{fill:#1967D2;}
	.st4{fill:#EA4335;}
</style>
<path class="st0" d="M210.5232391,840.7478027L59.9796371,991.3233032c-11.612133,11.5689087-30.3933582,11.5689087-42.0054932,0
	l-9.3132849-9.3132935c-11.5478144-11.6083984-11.5478144-30.3651733,0-41.9736328l150.5435944-150.5755005
	c11.6158142-11.5901489,30.4215698-11.5901489,42.037384,0l9.2814026,9.2813721
	c11.599472,11.5681152,11.624939,30.3491821,0.0568542,41.9486694
	C210.5611725,840.7098999,210.5422211,840.7288208,210.5232391,840.7478027z"/>
<path class="st1" d="M614.598877,903.6762695h192.7085571c106.3947754,0.0176392,192.6590576-86.2180786,192.6766968-192.612854
	c0-0.0318604,0-0.0638428,0-0.0957031V192.6766968C1000.00177,86.2819214,913.7659912,0.017623,807.3712158,0.0000114
	c-0.0212402-0.0000152-0.0424805-0.0000152-0.0637817,0C700.9126587-0.035227,614.6340942,86.1862259,614.598877,192.5809937
	c0,0.0319061,0,0.0637817,0,0.0957031V903.6762695z"/>
<path class="st0" d="M295.6505432,903.6762695c106.3947754,0.0352783,192.6733398-86.1862183,192.7085571-192.5809937
	c0-0.0425415,0-0.085022,0-0.1275635c0.0176392-106.3947754-86.2180786-192.6590576-192.612854-192.6766968
	c-0.0318909,0-0.0638123,0-0.0957031,0c-106.3947601-0.0352173-192.6733398,86.1862183-192.7085876,192.5809937
	c0,0.0318604-0.0000153,0.0638428,0,0.0957031c-0.0352402,106.3947754,86.1862106,192.6732788,192.5809937,192.7085571
	C295.5654602,903.6762695,295.6080017,903.6762695,295.6505432,903.6762695z"/>
<path class="st2" d="M749.1950073,903.6762695H561.4301758c-106.3947754,0.0176392-192.6590576-86.2180786-192.6766968-192.612854
	c0-0.0318604,0-0.0638428,0-0.0957031V458.4882202c-0.0352173-106.3947754,86.1862183-192.6733704,192.5809937-192.7085876
	c0.0318604,0,0.0638428,0,0.0957031,0c106.3947754-0.0352173,192.6733398,86.1862183,192.7085571,192.5809937
	c0,0.0425415,0,0.0850525,0,0.127594v440.2763062c0,2.7127075-2.1990967,4.9117432-4.9117432,4.9117432H749.1950073z"/>
<path class="st3" d="M754.1387329,898.7645264V458.4882202c-0.0068359-85.9471436-56.9287109-161.5003357-139.539856-185.2133179
	v630.4013672h134.5961304c2.7127075,0.0176392,4.9260254-2.1671753,4.9436035-4.8797607
	C754.1386719,898.7857666,754.1387329,898.7752075,754.1387329,898.7645264z"/>
<path class="st4" d="M488.3605347,711.0022583c0.0122986-78.2371216-47.2464294-148.7197876-119.6056213-178.3825073v178.3825073
	c0,54.8869019,22.9642639,104.4447021,59.8027954,139.546814
	C466.7860413,814.2142944,488.4093323,763.7573853,488.3605347,711.0022583z"/>
</svg>
